<?xml version="1.0" encoding="UTF-8" standalone="no"?>
<!DOCTYPE svg PUBLIC "-//W3C//DTD SVG 1.1//EN" "http://www.w3.org/Graphics/SVG/1.1/DTD/svg11.dtd">
<svg width="100%" height="100%" viewBox="0 0 100 100" version="1.1" xmlns="http://www.w3.org/2000/svg" xmlns:xlink="http://www.w3.org/1999/xlink" xml:space="preserve" xmlns:serif="http://www.serif.com/" style="fill-rule:evenodd;clip-rule:evenodd;stroke-linejoin:round;stroke-miterlimit:2;">
    <path d="M22.5,97.53L49.253,97.53C63.784,97.53 71.932,91.555 76.141,79.876C79.129,71.592 80.215,60.592 80.215,50C80.215,39.408 79.129,28.408 76.141,20.124C71.932,8.445 63.784,2.47 49.253,2.47L22.5,2.47L22.5,97.53ZM44.228,77.16L44.228,22.84L49.253,22.84C52.376,22.84 54.414,24.877 55.636,28.272C57.537,33.568 57.808,43.074 57.808,50C57.808,56.926 57.537,66.432 55.636,71.728C54.414,75.123 52.376,77.16 49.253,77.16L44.228,77.16Z" style="fill-rule:nonzero;"/>
</svg>
