<?xml version="1.0" encoding="UTF-8" standalone="no"?>
<!DOCTYPE svg PUBLIC "-//W3C//DTD SVG 1.1//EN" "http://www.w3.org/Graphics/SVG/1.1/DTD/svg11.dtd">
<svg width="100%" height="100%" viewBox="0 0 100 100" version="1.1" xmlns="http://www.w3.org/2000/svg" xmlns:xlink="http://www.w3.org/1999/xlink" xml:space="preserve" xmlns:serif="http://www.serif.com/" style="fill-rule:evenodd;clip-rule:evenodd;stroke-linejoin:round;stroke-miterlimit:2;">
    <path d="M50,99.974C64.531,99.974 72.679,93.999 76.888,82.32C79.876,74.037 80.962,63.037 80.962,50C80.962,36.963 79.876,25.963 76.888,17.68C72.679,6.001 64.531,0.026 50,0.026C35.469,0.026 27.321,6.001 23.112,17.68C20.124,25.963 19.038,36.963 19.038,50C19.038,63.037 20.124,74.037 23.112,82.32C27.321,93.999 35.469,99.974 50,99.974ZM41.445,50C41.445,40.63 41.716,31.124 43.617,25.828C44.84,22.433 46.877,20.396 50,20.396C53.123,20.396 55.16,22.433 56.383,25.828C58.284,31.124 58.555,40.63 58.555,50C58.555,59.37 58.284,68.876 56.383,74.172C55.16,77.567 53.123,79.604 50,79.604C46.877,79.604 44.84,77.567 43.617,74.172C41.716,68.876 41.445,59.37 41.445,50Z" style="fill-rule:nonzero;"/>
</svg>
