<?xml version="1.0" encoding="UTF-8" standalone="no"?>
<!DOCTYPE svg PUBLIC "-//W3C//DTD SVG 1.1//EN" "http://www.w3.org/Graphics/SVG/1.1/DTD/svg11.dtd">
<svg width="100%" height="100%" viewBox="0 0 100 100" version="1.1" xmlns="http://www.w3.org/2000/svg" xmlns:xlink="http://www.w3.org/1999/xlink" xml:space="preserve" xmlns:serif="http://www.serif.com/" style="fill-rule:evenodd;clip-rule:evenodd;stroke-linejoin:round;stroke-miterlimit:2;">
    <path d="M77.499,97.53L50.747,97.53C36.216,97.53 28.068,91.555 23.858,79.876C20.871,71.592 19.784,60.592 19.784,50C19.784,39.408 20.871,28.408 23.858,20.124C28.068,8.445 36.216,2.47 50.747,2.47L77.499,2.47L77.499,97.53ZM55.771,77.16L55.771,22.84L50.747,22.84C47.623,22.84 45.586,24.877 44.364,28.272C42.463,33.568 42.191,43.074 42.191,50C42.191,56.926 42.463,66.432 44.364,71.728C45.586,75.123 47.623,77.16 50.747,77.16L55.771,77.16Z" style="fill-rule:nonzero;"/>
</svg>
